{"title":"As aventuras de Sammy (2010) [HR] dublado Pt.Br [japa1080]","uid":11234095,"size":2202320766,"categoryP":"video","categoryS":"hd___movies","magnet":"?xt=urn:btih:07a157d9d8497165facd4d4cd256fc6b2fdb1f23&amp;dn=As+aventuras+de+Sammy+%282010%29+%5BHR%5D+dublado+Pt.Br+%5Bjapa1080%5D&amp;tr=udp%3A%2F%2Ftracker.openbittorrent.com%3A80&amp;tr=udp%3A%2F%2Fopen.demonii.com%3A1337&amp;tr=udp%3A%2F%2Ftracker.coppersurfer.tk%3A6969&amp;tr=udp%3A%2F%2Fexodus.desync.com%3A6969","seeders":1,"leechers":1,"uploader":"japa1080","files":-1,"time":1413576079,"description":" As Aventuras de Sammy (2010)\n&quot;Sammy's avonturen: De geheime doorgang&quot; (original title)\n88 min  -  Animation | Adventure | Family  -  28 January 2011 (Brazil)\n\nRIPPED by japa1080\n\n\nVideo\nID                                       : 0\nFormat                                   : AVC\nFormat/Info                              : Advanced Video Codec\nFormat profile                           : &lt;a class=&quot;__cf_email__&quot; href=&quot;/cdn-cgi/l/email-protection&quot; data-cfemail=&quot;0c44656b644c403f223c&quot;&gt;[email&amp;#160;protected]&lt;/a&gt;&lt;script cf-hash='f9e31' type=&quot;text/javascript&quot;&gt;\n/* &lt;![CDATA[ */!function(){try{var t=&quot;currentScript&quot;in document?document.currentScript:function(){for(var t=document.getElementsByTagName(&quot;script&quot;),e=t.length;e--;)if(t[e].getAttribute(&quot;cf-hash&quot;))return t[e]}();if(t&amp;&amp;t.previousSibling){var e,r,n,i,c=t.previousSibling,a=c.getAttribute(&quot;data-cfemail&quot;);if(a){for(e=&quot;&quot;,r=parseInt(a.substr(0,2),16),n=2;a.length-n;n+=2)i=parseInt(a.substr(n,2),16)^r,e+=String.fromCharCode(i);e=document.createTextNode(e),c.parentNode.replaceChild(e,c)}}}catch(u){}}();/* ]]&gt; */&lt;/script&gt;\nFormat settings, CABAC                   : No\nFormat settings, ReFrames                : 1 frame\nCodec ID                                 : avc1\nDuration                                 : 1h 18mn\nBit rate                                 : 3 456 Kbps\nWidth                                    : 856 pixels\nHeight                                   : 480 pixels\nDisplay aspect ratio                     : 16:9\nFrame rate                               : 29.970 fps\nColor space                              : YUV\nChroma subsampling                       : 4:2:0\nBit depth                                : 8 bits\nScan type                                : Progressive\nBits/(Pixel*Frame)                       : 0.281\nStream size                              : 1.90 GiB (93%)\n\n\nAudio\nID                                       : 1\nFormat                                   : MPEG Audio\nFormat version                           : Version 1\nFormat profile                           : Layer 3\nMode                                     : Joint stereo\nCodec ID                                 : 55\nCodec ID/Hint                            : MP3\nDuration                                 : 1h 18mn\nBit rate mode                            : Constant\nBit rate                                 : 256 Kbps\nChannel count                            : 2 channels\nSampling rate                            : 44.1 KHz\nCompression mode                         : Lossy\nStream size                              : 144 MiB (7%)\nAlignment                                : Aligned on interleaves\nInterleave, duration                     : 26 ms (0.78 video frame)\nInterleave, preload duration             : 888 ms\nWriting library                          : LAME3.98.4\n\n\nDeixa semeando ae galera, vlw !!!","torrent":{"xt":"urn:btih:07a157d9d8497165facd4d4cd256fc6b2fdb1f23","amp;dn":"As+aventuras+de+Sammy+%282010%29+%5BHR%5D+dublado+Pt.Br+%5Bjapa1080%5D","amp;tr":["udp%3A%2F%2Ftracker.openbittorrent.com%3A80","udp%3A%2F%2Fopen.demonii.com%3A1337","udp%3A%2F%2Ftracker.coppersurfer.tk%3A6969","udp%3A%2F%2Fexodus.desync.com%3A6969"],"infoHash":"07a157d9d8497165facd4d4cd256fc6b2fdb1f23","infoHashBuffer":{"type":"Buffer","data":[7,161,87,217,216,73,113,101,250,205,77,76,210,86,252,107,47,219,31,35]},"announce":[],"urlList":[]}}